<mxfile host="app.diagrams.net" agent="Mozilla/5.0 (Windows NT 10.0; Win64; x64) AppleWebKit/537.36 (KHTML, like Gecko) Chrome/135.0.0.0 Safari/537.36" version="26.2.14">
  <diagram name="PÃ¡gina-1" id="Mdwk35x1F6qZEsz7o2Tj">
    <mxGraphModel dx="872" dy="473" grid="1" gridSize="10" guides="1" tooltips="1" connect="1" arrows="1" fold="1" page="1" pageScale="1" pageWidth="827" pageHeight="1169" math="0" shadow="0">
      <root>
        <mxCell id="0" />
        <mxCell id="1" parent="0" />
        <mxCell id="FKNtymGENa2EqX-wO60i-4" value="" style="edgeStyle=orthogonalEdgeStyle;rounded=0;orthogonalLoop=1;jettySize=auto;html=1;" edge="1" parent="1" source="FKNtymGENa2EqX-wO60i-2" target="FKNtymGENa2EqX-wO60i-3">
          <mxGeometry relative="1" as="geometry" />
        </mxCell>
        <mxCell id="FKNtymGENa2EqX-wO60i-2" value="Inicio" style="ellipse;whiteSpace=wrap;html=1;aspect=fixed;" vertex="1" parent="1">
          <mxGeometry x="374" y="30" width="80" height="80" as="geometry" />
        </mxCell>
        <mxCell id="FKNtymGENa2EqX-wO60i-7" value="" style="edgeStyle=orthogonalEdgeStyle;rounded=0;orthogonalLoop=1;jettySize=auto;html=1;" edge="1" parent="1" source="FKNtymGENa2EqX-wO60i-3" target="FKNtymGENa2EqX-wO60i-6">
          <mxGeometry relative="1" as="geometry" />
        </mxCell>
        <mxCell id="FKNtymGENa2EqX-wO60i-3" value="&lt;div style=&quot;background-color: rgb(31, 31, 31); font-family: Consolas, &amp;quot;Courier New&amp;quot;, monospace; font-size: 14px; line-height: 19px; white-space: pre; color: rgb(204, 204, 204);&quot;&gt;&lt;span style=&quot;color: light-dark(rgb(156, 220, 254), rgb(12, 67, 96)); background-color: light-dark(rgb(31, 31, 31), rgb(210, 210, 210));&quot;&gt;entrada &lt;/span&gt;&lt;/div&gt;&lt;div style=&quot;background-color: rgb(31, 31, 31); font-family: Consolas, &amp;quot;Courier New&amp;quot;, monospace; font-size: 14px; line-height: 19px; white-space: pre; color: rgb(204, 204, 204);&quot;&gt;&lt;font color=&quot;#9cdcfe&quot;&gt;(id) &lt;/font&gt;&lt;/div&gt;" style="shape=parallelogram;perimeter=parallelogramPerimeter;whiteSpace=wrap;html=1;fixedSize=1;" vertex="1" parent="1">
          <mxGeometry x="336" y="150" width="134" height="60" as="geometry" />
        </mxCell>
        <mxCell id="FKNtymGENa2EqX-wO60i-6" value="let numeros" style="whiteSpace=wrap;html=1;" vertex="1" parent="1">
          <mxGeometry x="343" y="230" width="120" height="60" as="geometry" />
        </mxCell>
      </root>
    </mxGraphModel>
  </diagram>
</mxfile>
